<svg xmlns="http://www.w3.org/2000/svg" viewBox="0 0 64 64" width="64" height="64">
  <defs>
    <linearGradient id="g" x1="0" y1="0" x2="1" y2="1">
      <stop offset="0%" stop-color="#7A9D7A"/>
      <stop offset="100%" stop-color="#E07A5F"/>
    </linearGradient>
  </defs>
  <rect width="64" height="64" rx="14" fill="url(#g)"/>
  <path d="M32 14c-7 0-13 5-13 12 0 4 2 7 5 9-2 1-3 3-3 5v6c0 2 1 3 3 3h16c2 0 3-1 3-3v-6c0-2-1-4-3-5 3-2 5-5 5-9 0-7-6-12-13-12z" fill="#fff" opacity=".95"/>
  <circle cx="38" cy="22" r="2.2" fill="#2D3142"/>
</svg>
