<svg xmlns="http://www.w3.org/2000/svg" viewBox="0 0 48 48" width="48" height="48">
  <defs>
    <linearGradient id="bg" x1="0%" y1="0%" x2="100%" y2="100%">
      <stop offset="0%" stop-color="#3A5A40"/>
      <stop offset="100%" stop-color="#1F3324"/>
    </linearGradient>
  </defs>
  <rect width="48" height="48" rx="10" fill="url(#bg)"/>
  <g fill="#FAF7F2">
    <path d="M21.2 9.1c.5-1 1.4-1.1 1.9-.2.5-.9 1.4-.9 1.9 0 .5-.9 1.4-.8 1.7.2.4-.7 1.1-.6 1.4.3.2.7-.1 1.4-.7 1.7-.4-.7-1-.8-1.4-.2-.4-.6-1.1-.6-1.5 0-.4-.6-1.1-.6-1.5 0-.5.6-1.2.6-1.6 0-.2-.6.1-1.2.8-1.8z"/>
    <path d="M28 13c1.5.6 2.6 2.1 2.6 3.9 0 1.4-.7 2.6-1.7 3.4 1.4.7 2.7 1.7 3.6 3 2.6 3.6 2.6 8.8-1.6 12.4-2.7 2.3-7 3.3-10.6 3.3-6.5 0-11-2.6-11-7.6 0-3.6 1.6-7 4.5-9.4 2.4-2 5.5-3.2 8.7-3.4-.6-.7-1-1.7-1-2.7 0-2.4 1.9-4.4 4.4-4.4.5 0 1 .1 1.4.2-.5.7-.7 1.5-.5 2.4z"/>
    <path d="M9 26.6c-3.5-1-5.3-4.5-4.7-7.4 1.6 1.6 3.4 2.8 5 3.4-.2 1.3-.3 2.6-.3 4z"/>
    <path d="M8 30.5c-3.4 0-5.5-2.4-5.7-4.9 1.7 1 3.6 1.6 5.3 1.7 0 1.1.1 2.2.4 3.2z"/>
    <path d="M9.2 33.9c-3 1.1-5.6-.4-6.6-2.8 1.8.5 3.7.5 5.3.1.3 1 .8 1.9 1.3 2.7z"/>
  </g>
  <circle cx="29.7" cy="17.5" r="0.9" fill="#1B1B1F"/>
  <path d="M31 18l3.3.8-3.3 1z" fill="#F4B860"/>
  <path d="M28.6 19.6c.5 1.1 0 2.4-1 2.9" stroke="#E07A5F" stroke-width="1.3" fill="none" stroke-linecap="round"/>
  <path d="M19 41.5v3.5M19 45h2.4M24 41.5v3.5M24 45h2.4" stroke="#FAF7F2" stroke-width="1.6" stroke-linecap="round"/>
</svg>
