<svg xmlns="http://www.w3.org/2000/svg" viewBox="0 0 1200 630" width="1200" height="630">
  <defs>
    <linearGradient id="bg" x1="0%" y1="0%" x2="100%" y2="100%">
      <stop offset="0%" stop-color="#FAF7F2"/>
      <stop offset="100%" stop-color="#F2EBDC"/>
    </linearGradient>
    <linearGradient id="moss" x1="0%" y1="0%" x2="100%" y2="100%">
      <stop offset="0%" stop-color="#3A5A40"/>
      <stop offset="100%" stop-color="#1F3324"/>
    </linearGradient>
    <radialGradient id="orb1" cx="50%" cy="50%" r="50%">
      <stop offset="0%" stop-color="#3A5A40" stop-opacity="0.15"/>
      <stop offset="100%" stop-color="#3A5A40" stop-opacity="0"/>
    </radialGradient>
    <radialGradient id="orb2" cx="50%" cy="50%" r="50%">
      <stop offset="0%" stop-color="#E07A5F" stop-opacity="0.20"/>
      <stop offset="100%" stop-color="#E07A5F" stop-opacity="0"/>
    </radialGradient>
    <filter id="grain">
      <feTurbulence type="fractalNoise" baseFrequency="0.85" numOctaves="2" stitchTiles="stitch"/>
      <feColorMatrix values="0 0 0 0 0 0 0 0 0 0 0 0 0 0 0 0 0 0 0.04 0"/>
    </filter>
  </defs>

  <!-- BG -->
  <rect width="1200" height="630" fill="url(#bg)"/>
  <circle cx="1100" cy="100" r="320" fill="url(#orb1)"/>
  <circle cx="100" cy="600" r="320" fill="url(#orb2)"/>
  <rect width="1200" height="630" filter="url(#grain)" opacity="0.6"/>

  <!-- Right hero panel — moss block -->
  <g transform="translate(720, 0)">
    <rect width="480" height="630" fill="url(#moss)"/>
    <rect width="480" height="630" filter="url(#grain)" opacity="0.5"/>

    <!-- Big stylised hen on the right -->
    <g transform="translate(120, 130) scale(8.5)" fill="#FAF7F2" opacity="0.95">
      <path d="M21.2 9.1c.5-1 1.4-1.1 1.9-.2.5-.9 1.4-.9 1.9 0 .5-.9 1.4-.8 1.7.2.4-.7 1.1-.6 1.4.3.2.7-.1 1.4-.7 1.7-.4-.7-1-.8-1.4-.2-.4-.6-1.1-.6-1.5 0-.4-.6-1.1-.6-1.5 0-.5.6-1.2.6-1.6 0-.2-.6.1-1.2.8-1.8z"/>
      <path d="M28 13c1.5.6 2.6 2.1 2.6 3.9 0 1.4-.7 2.6-1.7 3.4 1.4.7 2.7 1.7 3.6 3 2.6 3.6 2.6 8.8-1.6 12.4-2.7 2.3-7 3.3-10.6 3.3-6.5 0-11-2.6-11-7.6 0-3.6 1.6-7 4.5-9.4 2.4-2 5.5-3.2 8.7-3.4-.6-.7-1-1.7-1-2.7 0-2.4 1.9-4.4 4.4-4.4.5 0 1 .1 1.4.2-.5.7-.7 1.5-.5 2.4z"/>
      <path d="M9 26.6c-3.5-1-5.3-4.5-4.7-7.4 1.6 1.6 3.4 2.8 5 3.4-.2 1.3-.3 2.6-.3 4z"/>
      <path d="M8 30.5c-3.4 0-5.5-2.4-5.7-4.9 1.7 1 3.6 1.6 5.3 1.7 0 1.1.1 2.2.4 3.2z"/>
      <path d="M9.2 33.9c-3 1.1-5.6-.4-6.6-2.8 1.8.5 3.7.5 5.3.1.3 1 .8 1.9 1.3 2.7z"/>
    </g>
    <circle cx="380" cy="270" r="9" fill="#1B1B1F"/>
    <path d="M396 280 l36 8 -36 12 z" fill="#F4B860"/>

    <!-- Yolk dot floating -->
    <circle cx="80" cy="80" r="22" fill="#F4B860"/>
  </g>

  <!-- Left content -->
  <!-- Logo -->
  <g transform="translate(60, 60)">
    <rect width="56" height="56" rx="14" fill="url(#moss)"/>
    <text x="74" y="24" font-family="'Playfair Display', Georgia, serif" font-weight="700" font-size="26" fill="#1B1B1F">Easy Poultry</text>
    <text x="74" y="46" font-family="Inter, system-ui, sans-serif" font-weight="600" font-size="10" fill="#3A5A40" letter-spacing="2.4">MARKETPLACE · FARM · AUCTIONS</text>
    <circle cx="52" cy="6" r="5" fill="#F4B860" stroke="#FAF7F2" stroke-width="2.5"/>
  </g>

  <!-- Eyebrow -->
  <g transform="translate(60, 165)">
    <rect width="220" height="32" rx="16" fill="#DCE6DD" stroke="#B8CCBA" stroke-width="1"/>
    <text x="20" y="20" font-family="Inter, system-ui, sans-serif" font-weight="600" font-size="11" fill="#3A5A40" letter-spacing="2">SOUTH AFRICA · NOW LIVE</text>
  </g>

  <!-- Headline -->
  <g font-family="'Playfair Display', Georgia, serif" font-weight="700" fill="#1B1B1F">
    <text x="60" y="285" font-size="64" letter-spacing="-1.5">Where serious</text>
    <text x="60" y="355" font-size="64" letter-spacing="-1.5">
      <tspan fill="#3A5A40" font-style="italic">poultry</tspan> people
    </text>
    <text x="60" y="425" font-size="64" letter-spacing="-1.5">
      <tspan fill="#E07A5F" font-style="italic">trade</tspan>.
    </text>
  </g>

  <!-- Sub copy -->
  <g font-family="Inter, system-ui, sans-serif" fill="#1B1B1F" opacity="0.7">
    <text x="60" y="475" font-size="18" font-weight="400">Marketplace · Auctions · Farm management.</text>
    <text x="60" y="500" font-size="18" font-weight="400">All in one place. Free to list, free to message buyers.</text>
  </g>

  <!-- CTA -->
  <g transform="translate(60, 540)">
    <rect width="450" height="56" rx="28" fill="url(#moss)"/>
    <text x="32" y="36" font-family="Inter, system-ui, sans-serif" font-weight="600" font-size="18" fill="#FAF7F2">easypoultry.co.za</text>
    <g transform="translate(400, 18)">
      <circle cx="14" cy="14" r="14" fill="#F4B860"/>
      <path d="M9 14h10M14 9l5 5-5 5" stroke="#1B1B1F" stroke-width="2" fill="none" stroke-linecap="round" stroke-linejoin="round"/>
    </g>
  </g>
</svg>
